<?xml version="1.0" encoding="utf-8"?>
<!-- Generator: Adobe Illustrator 19.0.0, SVG Export Plug-In . SVG Version: 6.00 Build 0)  -->
<svg version="1.1" id="Layer_1" xmlns="http://www.w3.org/2000/svg" xmlns:xlink="http://www.w3.org/1999/xlink" x="0px" y="0px"
	 viewBox="0 0 262.2 68.5" style="enable-background:new 0 0 262.2 68.5;" xml:space="preserve">
<style type="text/css">
	.Arched_x0020_Green{fill:url(#SVGID_1_);stroke:#FFFFFF;stroke-width:0.25;stroke-miterlimit:1;}
</style>
<linearGradient id="SVGID_1_" gradientUnits="userSpaceOnUse" x1="-477.5926" y1="-346.6296" x2="-476.8855" y2="-347.3367">
	<stop  offset="0" style="stop-color:#20AC4B"/>
	<stop  offset="0.9831" style="stop-color:#19361A"/>
</linearGradient>
<g>
	<g>
		<path d="M37,5.7H8.9c-1.3,0-2.3,1-2.3,2.3v4.6c0,1.3,1,2.3,2.3,2.3h6.9c0.8,0,1.4,0.6,1.4,1.4v45.3c0,1.3,1,2.3,2.3,2.3h6.9
			c1.3,0,2.3-1,2.3-2.3V16.3c0-0.8,0.6-1.4,1.4-1.4H37c1.3,0,2.3-1,2.3-2.3V8C39.3,6.7,38.3,5.7,37,5.7z"/>
		<path d="M69.1,26.6c-1.3-3.8-4.7-6-8.6-6c-3.6,0-6,1.6-7.4,2.9c-0.3,0.2-0.5,0.3-0.5,0.3l0,0c0,0-0.1-0.2-0.1-0.5L52.5,8
			c0-1.3-1-2.3-2.3-2.3h-5.8c-1.3,0-2.3,1-2.3,2.3v53.5c0,1.3,1,2.3,2.3,2.3h6c1.3,0,2.3-1,2.3-2.3V33.3c0-0.7,0-1,0.1-1.6
			c0.3-0.8,0.9-2.5,3.2-2.5c1.2,0,2.4,0.6,2.8,1.6c0.3,0.7,0.3,1.3,0.3,3v27.7h0c0,1.3,1,2.3,2.3,2.3h6c1.3,0,2.3-1,2.3-2.3V30.9
			C69.7,28.8,69.4,27.6,69.1,26.6z"/>
		<path d="M84.6,45.2h12.8c1.3,0,2.3-1,2.3-2.3v-10c0-3.2-0.4-4.6-1.2-6.1c-1.3-2.7-5.2-6.2-12.1-6.2c-5,0-10.5,1.8-12.7,6.9
			c-1,2.3-1.1,5.1-1.1,5.8v17.5c0,0.5,0.2,3.4,0.7,5.6c1.1,3.8,4.2,8.3,12.8,8.3h0.1c5.6,0,11.1-1.7,12.8-7.8
			c0.4-1.4,0.4-2.4,0.4-3.9v-1.7c0-1.2-1.1-2.1-2.3-2.1h-5.6c-1.3,0-2.3,1-2.3,2.3c0,1-0.1,2.2-0.3,2.7c-0.5,1.3-1.3,1.9-2.6,2
			c-0.8,0-2.3-0.2-2.9-2c-0.2-0.7-0.2-1.2-0.2-2.6l0-5C83.2,45.8,83.8,45.2,84.6,45.2z M83.2,32.8c0-0.5,0-1.5,0.4-2.3
			c0.4-0.8,1.1-1.4,2.7-1.4c1.5,0,2.1,0.6,2.5,1.2c0.4,0.7,0.4,1.6,0.4,2.1v3.5c0,0.8-0.6,1.4-1.4,1.4h-3.2c-0.8,0-1.4-0.6-1.4-1.4
			V32.8z"/>
	</g>
	<g>
		<path d="M133.6,37.3c-1.8-2.3-4-4.1-4.8-4.6l-10.2-7c-1.1-0.8-1.8-1.4-2.1-1.7c-0.9-1.3-1.1-3.8-1.1-4.8c0-0.3,0-0.4,0-0.5
			c0.1-4.6,1.9-5.1,4.3-5.2c3.8,0.1,4.2,2.1,4.2,3.7v4c0,1.3,1,2.3,2.3,2.3h6.9c1.3,0,2.3-1,2.3-2.3v-3.8c0-2.8-0.4-3.5-0.9-5
			c-3.2-7.9-12.6-7.8-14.3-7.8c-1.2,0-11.2-0.1-14.6,7.2c-1.4,2.8-1.4,6.4-1.4,7.7c0,0.1,0,0.3,0,0.3c0,4.9,0.8,7.2,2.1,9.3
			c1.5,2.4,2.7,3.4,4.9,4.9l10,6.7c0.4,0.3,1.6,1,2.3,2.1c0.9,1.4,1.1,3.3,1.1,4.4c0,0.3,0,0.5,0,0.6c0,3.9-0.1,6.3-1.4,7.3
			c-0.6,0.6-1.6,1-3.4,1c-1.5,0-2.4-0.4-3-0.7c-1.5-1-1.7-2.7-1.7-4.6c0-0.3,0-0.6,0-0.9v-4.8c0-1.3-1-2.3-2.3-2.3H106
			c-1.3,0-2.3,1-2.3,2.3v6.5c0,3.3,0.5,4.5,1.2,6.1c0.4,0.9,1.2,2.6,3.1,4.1c3.5,2.8,7.9,3.3,12,3.3l0,0c9.9,0,14-4.3,15.3-9.1
			c0.6-2.3,0.6-4.2,0.6-8.6c0-0.7,0-1.3,0-1.9C135.9,42.5,135.7,40.1,133.6,37.3z"/>
		<path d="M157.7,56.8c-0.2-0.4-0.5-0.7-1-0.8c0,0-0.1,0-0.1,0c-0.2,0-0.5,0-0.7,0c-1.7,0-3.2-0.3-3.7-1.9c-0.2-0.6-0.2-0.8-0.2-2.1
			V30.1c0-0.8,0.6-1.4,1.4-1.4h2.1c1.3,0,2.3-1,2.3-2.3v-2.7c0-1.3-1-2.3-2.3-2.3h-2.1c-0.8,0-1.4-0.6-1.4-1.4V12
			c0-1.3-1-2.3-2.3-2.3h-5.9c-1.3,0-2.3,1-2.3,2.3v8.1c0,0.8-0.6,1.4-1.4,1.4h-1.5c-1.3,0-2.3,1-2.3,2.3v2.7c0,1.3,1,2.3,2.3,2.3
			h1.6c0.8,0,1.4,0.6,1.4,1.4v25c0,1.6,0.1,3.4,0.9,5c1.3,2.9,4.5,4.2,10.1,4.2h0.1c1.3,0,2.4-0.1,3.2-0.2c1.3-0.2,2.2-1.4,2.2-2.6
			v-3.3C157.9,57.6,157.8,57.2,157.7,56.8z"/>
		<path d="M181.3,22.9c0-1.1-0.9-2.2-2.1-2.2c-0.1,0-0.2,0-0.2,0c-1.9,0.2-4.5,1-6.5,3.7c-0.2,0.3-0.4,0.6-0.6,0.9l0-1.6v0
			c0-1.3-1-2.3-2.3-2.3h-6c-1.3,0-2.3,1-2.3,2.3v37.8c0,1.3,1,2.3,2.3,2.3h5.9c1.3,0,2.3-1,2.3-2.3V38.9c0-0.2,0-0.3,0-0.5
			c0-2.7,0.1-5.4,2.4-7c1.3-0.9,2.8-0.9,3.4-0.9c0.6,0,1.1,0.1,1.5,0.1l0.1-0.4l0,0l-0.1,0.4c0.1,0,0.3,0,0.4,0
			c0.5,0,0.9-0.2,1.2-0.5c0.3-0.3,0.5-0.8,0.5-1.3L181.3,22.9L181.3,22.9z"/>
		<path d="M194.7,45.2h12.8c1.3,0,2.3-1,2.3-2.3v-10c0-3.2-0.4-4.6-1.2-6.1c-1.3-2.7-5.2-6.2-12.1-6.2c-5,0-10.5,1.8-12.7,6.9
			c-1,2.3-1.1,5.1-1.1,5.8v17.5c0,0.5,0.2,3.4,0.7,5.6c1.1,3.9,4.3,8.3,12.9,8.3c0,0,0.1,0,0.1,0c5.5,0,11-1.7,12.7-7.8
			c0.4-1.4,0.4-2.4,0.4-3.9v-1.7c0-1.2-1.1-2.1-2.3-2.1h-5.6c-1.3,0-2.3,1-2.3,2.3c0,1-0.1,2.2-0.3,2.7c-0.5,1.3-1.3,1.9-2.7,2
			c-0.7,0-2.3-0.2-2.9-2c-0.2-0.7-0.2-1.2-0.2-2.6v-5C193.3,45.8,194,45.2,194.7,45.2z M196.4,29.2c1.5,0,2.1,0.6,2.5,1.2
			c0.4,0.7,0.4,1.6,0.4,2.1c0,0.1,0,0.2,0,0.3v3.3c0,0.8-0.6,1.4-1.4,1.4h-3.2c-0.8,0-1.4-0.6-1.4-1.4v-3.3c0-0.5,0-1.5,0.4-2.3
			C194.2,29.8,194.8,29.2,196.4,29.2z"/>
		<path d="M224.5,45.2h12.8c1.3,0,2.3-1,2.3-2.3v-10c0-3.2-0.4-4.6-1.2-6.1c-1.3-2.7-5.2-6.2-12.1-6.2c-5,0-10.5,1.8-12.7,6.9
			c-1,2.3-1.1,5.1-1.1,5.8v17.5c0,0.5,0.2,3.4,0.7,5.6c1.1,3.9,4.3,8.3,12.9,8.3h0.1c5.5,0,11-1.7,12.7-7.8c0.4-1.4,0.4-2.4,0.4-3.9
			v-1.7c0-1.2-1.1-2.1-2.3-2.1h-5.6c-1.3,0-2.3,1-2.3,2.3c0,1-0.1,2.2-0.3,2.7c-0.5,1.3-1.3,1.9-2.7,2c-0.7,0-2.3-0.2-2.9-2
			c-0.2-0.7-0.2-1.2-0.2-2.6v-5C223.1,45.8,223.8,45.2,224.5,45.2z M226.2,29.2c1.5,0,2.1,0.6,2.4,1.2c0.4,0.7,0.4,1.6,0.4,2.1
			c0,0.1,0,0.2,0,0.3v3.3c0,0.8-0.6,1.4-1.4,1.4h-3.2c-0.8,0-1.4-0.6-1.4-1.4v-3.3c0-0.5,0-1.5,0.4-2.3
			C224,29.8,224.6,29.2,226.2,29.2z"/>
		<path d="M262,56.8c-0.2-0.4-0.4-0.7-1-0.8c0,0-0.1,0-0.1,0c-0.2,0-0.5,0-0.8,0c-1.7,0-3.2-0.3-3.7-1.9c-0.2-0.6-0.2-0.8-0.2-2.1
			V30.1c0-0.8,0.6-1.4,1.4-1.4h2.1c1.3,0,2.3-1,2.3-2.3v-2.7c0-1.3-1-2.3-2.3-2.3h-2.1c-0.8,0-1.4-0.6-1.4-1.4V12
			c0-1.3-1-2.3-2.3-2.3H248c-1.3,0-2.3,1-2.3,2.3v8.1c0,0.8-0.6,1.4-1.4,1.4h-1.5c-1.3,0-2.3,1-2.3,2.3v2.7c0,1.3,1,2.3,2.3,2.3h1.6
			c0.8,0,1.4,0.6,1.4,1.4v25c0,1.6,0.1,3.4,0.8,5c1.3,2.9,4.5,4.2,10.1,4.2c0,0,0.1,0,0.1,0c1.3,0,2.3-0.1,3.2-0.2
			c1.3-0.2,2.2-1.4,2.2-2.6v-3.3C262.2,57.6,262.1,57.2,262,56.8z M247.1,59.9L247.1,59.9L247.1,59.9L247.1,59.9z"/>
	</g>
</g>
</svg>
